<svg xmlns="http://www.w3.org/2000/svg" width="1200" height="630" viewBox="0 0 1200 630" role="img" aria-label="ThreatRecon.io browser based malware triage workbench">
  <defs>
    <linearGradient id="bg" x1="0" y1="0" x2="1" y2="1">
      <stop offset="0" stop-color="#070a10"/>
      <stop offset="0.58" stop-color="#101827"/>
      <stop offset="1" stop-color="#06131a"/>
    </linearGradient>
    <linearGradient id="accent" x1="0" y1="0" x2="1" y2="0">
      <stop offset="0" stop-color="#00d4ff"/>
      <stop offset="1" stop-color="#9b59ff"/>
    </linearGradient>
    <filter id="glow" x="-30%" y="-30%" width="160%" height="160%">
      <feGaussianBlur stdDeviation="10" result="blur"/>
      <feMerge>
        <feMergeNode in="blur"/>
        <feMergeNode in="SourceGraphic"/>
      </feMerge>
    </filter>
  </defs>
  <rect width="1200" height="630" fill="url(#bg)"/>
  <g opacity="0.18" stroke="#00d4ff" stroke-width="1">
    <path d="M0 110H1200M0 220H1200M0 330H1200M0 440H1200M0 550H1200"/>
    <path d="M120 0V630M240 0V630M360 0V630M480 0V630M600 0V630M720 0V630M840 0V630M960 0V630M1080 0V630"/>
  </g>
  <circle cx="970" cy="145" r="210" fill="#00d4ff" opacity="0.08"/>
  <circle cx="160" cy="500" r="180" fill="#9b59ff" opacity="0.08"/>
  <g transform="translate(80 92)" filter="url(#glow)">
    <polygon points="52,0 104,28 104,84 52,112 0,84 0,28" fill="none" stroke="#00d4ff" stroke-width="5"/>
    <polygon points="52,24 82,40 82,72 52,88 22,72 22,40" fill="rgba(0,212,255,0.12)" stroke="#00d4ff" stroke-width="2"/>
    <circle cx="52" cy="56" r="11" fill="#00d4ff"/>
  </g>
  <text x="80" y="265" fill="#d4e2f4" font-family="Segoe UI, Arial, sans-serif" font-size="78" font-weight="800" letter-spacing="-1">
    ThreatRecon.io
  </text>
  <text x="84" y="340" fill="#00d4ff" font-family="Segoe UI, Arial, sans-serif" font-size="36" font-weight="700">
    Browser Based Malware Triage Workbench
  </text>
  <text x="84" y="415" fill="#8a9eb8" font-family="Consolas, Courier New, monospace" font-size="28">
    Static Analysis " IOC Extraction " MITRE ATT&amp;CK " YARA " Sigma
  </text>
  <g transform="translate(84 470)">
    <rect width="210" height="46" rx="23" fill="rgba(0,212,255,0.12)" stroke="#00d4ff" opacity="0.9"/>
    <text x="24" y="31" fill="#d4e2f4" font-family="Consolas, Courier New, monospace" font-size="18">No sample upload</text>
    <rect x="230" width="230" height="46" rx="23" fill="rgba(0,212,255,0.12)" stroke="#00d4ff" opacity="0.9"/>
    <text x="254" y="31" fill="#d4e2f4" font-family="Consolas, Courier New, monospace" font-size="18">Local browser analysis</text>
    <rect x="480" width="190" height="46" rx="23" fill="rgba(0,212,255,0.12)" stroke="#00d4ff" opacity="0.9"/>
    <text x="504" y="31" fill="#d4e2f4" font-family="Consolas, Courier New, monospace" font-size="18">Static only</text>
  </g>
</svg>
